<?xml version="1.0" standalone="no"?> <!DOCTYPE svg PUBLIC "-//W3C//DTD SVG 20010904//EN" "http://www.w3.org/TR/2001/REC-SVG-20010904/DTD/svg10.dtd"> <svg version="1.0" xmlns="http://www.w3.org/2000/svg" width="98.000000pt" height="114.000000pt" viewBox="0 0 98.000000 114.000000" preserveAspectRatio="xMidYMid meet"> <g transform="translate(0.000000,114.000000) scale(0.100000,-0.100000)" fill="#46adc4" stroke="none"> <path d="M242 1112 c3 -15 9 -35 13 -44 5 -12 3 -18 -6 -18 -29 0 -169 -43 -169 -52 0 -6 13 -27 30 -48 l30 -38 -29 -64 c-16 -35 -44 -108 -61 -163 l-33 -99 29 -23 c16 -13 35 -28 42 -34 8 -6 12 -42 13 -107 0 -99 7 -136 24 -130 6 2 11 -12 13 -29 4 -39 11 -41 40 -10 23 25 29 52 12 62 -6 4 -10 56 -10 123 0 96 2 113 13 98 11 -15 22 0 94 127 45 78 89 156 97 172 l15 28 6 -29 c15 -68 37 -132 59 -174 l24 -44 26 52 c14 28 33 79 40 113 8 33 16 63 18 65 2 1 30 -45 63 -104 115 -209 125 -224 140 -212 12 10 15 -5 17 -92 2 -69 -1 -110 -9 -124 -11 -17 -9 -25 16 -54 l28 -34 7 37 c4 21 11 35 16 32 4 -3 11 48 15 114 7 116 8 118 36 135 16 9 29 25 29 35 0 20 -59 196 -89 264 l-21 49 30 36 c16 20 30 39 30 42 0 3 -40 19 -89 35 l-89 30 14 37 c7 21 9 40 5 43 -10 5 -93 -15 -179 -45 -59 -20 -64 -21 -94 -5 -34 17 -92 39 -167 61 l-43 14 4 -28z"/> <path d="M260 585 c0 -8 7 -15 15 -15 8 0 15 7 15 15 0 8 -7 15 -15 15 -8 0 -15 -7 -15 -15z"/> <path d="M685 590 c-8 -13 4 -32 16 -25 12 8 12 35 0 35 -6 0 -13 -4 -16 -10z"/> <path d="M357 376 c-8 -20 58 -30 173 -24 91 4 112 10 94 28 -7 7 -21 7 -42 -1 -33 -11 -174 -8 -203 5 -11 5 -19 2 -22 -8z"/> <path d="M444 298 c-3 -5 18 -8 45 -8 28 0 51 4 51 9 0 10 -90 9 -96 -1z"/> <path d="M733 246 c-25 -23 -29 -41 -13 -51 8 -5 45 64 38 70 -2 1 -13 -7 -25 -19z"/> <path d="M240 219 c17 -32 24 -39 31 -28 13 21 12 23 -22 48 l-30 22 21 -42z"/> <path d="M525 140 c-11 -4 -36 -6 -55 -3 -34 5 -36 3 -72 -61 -21 -36 -38 -68 -38 -71 0 -3 63 -5 141 -5 130 0 141 1 134 18 -9 24 -79 132 -85 131 -3 0 -14 -4 -25 -9z"/> </g> </svg>