<svg version="1.0" xmlns="http://www.w3.org/2000/svg" width="130.000000pt" height="130.000000pt" viewBox="0 0 130.000000 130.000000" preserveAspectRatio="xMidYMid meet" style="width: 264.622px; height: auto;"> <g transform="translate(0.000000,130.000000) scale(0.100000,-0.100000)" fill="#000000" stroke="none">          <path d="M403 1149 c3 -13 8 -33 12 -45 6 -18 0 -22 -48 -33 -142 -32 -145 -34 -97 -93 l30 -36 -29 -63 c-16 -35 -43 -109 -61 -164 l-31 -100 23 -18 c61 -48 58 -41 59 -144 0 -100 7 -137 24 -131 6 2 11 -12 13 -30 4 -38 17 -38 46 1 17 23 18 31 8 47 -8 13 -12 61 -12 132 0 93 2 109 13 94 11 -15 24 3 106 148 52 91 97 163 101 161 4 -3 11 -24 14 -48 4 -24 22 -75 40 -113 l33 -69 25 50 c24 46 34 77 53 159 6 27 13 17 96 -130 50 -87 94 -163 99 -168 6 -6 12 -2 17 10 5 12 10 -24 13 -91 4 -78 1 -116 -7 -131 -11 -17 -9 -25 16 -54 l28 -34 7 37 c4 21 11 35 15 33 8 -5 21 111 21 190 0 38 4 45 30 59 17 9 30 24 30 33 0 21 -59 196 -89 265 l-21 49 30 36 c28 34 29 38 13 50 -10 7 -49 22 -88 34 l-71 22 12 35 c7 20 10 39 8 43 -6 10 -54 0 -153 -33 l-84 -28 -101 39 c-150 57 -150 57 -143 29z" class=""></path> <path d="M420 615 c0 -8 7 -15 15 -15 8 0 15 7 15 15 0 8 -7 15 -15 15 -8 0 -15 -7 -15 -15z"></path> <path d="M847 623 c-12 -11 -8 -23 8 -23 8 0 15 7 15 15 0 16 -12 20 -23 8z"></path> <path d="M515 410 c-12 -19 3 -24 95 -28 105 -5 183 4 177 21 -2 7 -15 10 -28 7 -39 -7 -192 -6 -216 3 -13 5 -24 4 -28 -3z"></path> <path d="M600 328 c0 -5 23 -8 50 -8 28 0 50 4 50 8 0 5 -22 8 -50 8 -27 -1 -50 -4 -50 -8z"></path> <path d="M888 275 c-22 -19 -25 -26 -15 -40 11 -14 15 -12 30 21 10 20 17 38 15 39 -2 2 -15 -7 -30 -20z"></path> <path d="M390 275 c0 -3 7 -20 16 -37 12 -24 18 -28 25 -17 13 21 11 25 -16 43 -14 9 -25 14 -25 11z"></path> <path d="M685 171 c-11 -5 -36 -6 -56 -4 -35 5 -36 5 -75 -68 -21 -41 -40 -77 -42 -81 -2 -5 64 -8 147 -8 83 0 151 3 151 7 0 11 -93 163 -99 162 -4 0 -15 -4 -26 -8z"></path> </g> </svg>